<?xml version="1.0" standalone="no"?>
<!DOCTYPE svg PUBLIC "-//W3C//DTD SVG 20010904//EN"
 "http://www.w3.org/TR/2001/REC-SVG-20010904/DTD/svg10.dtd">
<svg version="1.0" xmlns="http://www.w3.org/2000/svg"
 width="1024.000000pt" height="1024.000000pt" viewBox="0 0 1024.000000 1024.000000"
 preserveAspectRatio="xMidYMid meet">
<metadata>
Created by potrace 1.14, written by Peter Selinger 2001-2017
</metadata>
<g transform="translate(0.000000,1024.000000) scale(0.100000,-0.100000)"
fill="#000000" stroke="none">
<path d="M0 5120 l0 -5120 5120 0 5120 0 0 5120 0 5120 -5120 0 -5120 0 0
-5120z m4060 1961 c157 -24 370 -77 485 -118 l80 -30 65 31 c54 25 78 30 140
31 64 0 82 -4 128 -29 82 -46 126 -115 138 -220 l7 -56 95 -67 c447 -317 784
-769 968 -1298 61 -176 63 -219 8 -284 -41 -49 -97 -64 -217 -59 -133 4 -164
22 -221 126 -97 177 -251 324 -431 412 -148 73 -229 91 -422 97 -90 3 -163 1
-163 -3 0 -5 7 -36 14 -69 42 -177 60 -469 40 -665 l-7 -70 43 0 c34 0 48 -6
76 -34 22 -22 34 -44 34 -60 0 -35 -25 -83 -49 -96 -28 -14 -602 -14 -635 1
-32 15 -50 54 -77 169 -32 140 -72 249 -146 398 l-65 132 -348 0 -348 0 -35
-39 c-61 -68 -148 -133 -234 -174 -93 -44 -88 -34 -99 -194 l-6 -103 41 0 c49
0 96 -22 112 -51 20 -39 13 -88 -17 -120 l-28 -29 -338 0 -339 0 -24 24 c-30
30 -29 29 -55 251 -27 229 -68 484 -115 700 -32 146 -36 184 -33 272 l3 103
-87 0 c-114 0 -184 -25 -248 -89 -55 -55 -78 -102 -92 -184 -18 -111 -30 -146
-65 -187 -105 -122 -294 -110 -378 25 l-30 48 -3 226 c-4 245 4 325 45 456
113 358 434 638 807 704 33 6 166 11 295 11 313 0 390 9 554 64 214 72 248 76
672 72 317 -3 389 -6 505 -25z m-1809 -2487 c10 -12 10 -25 1 -62 -6 -26 -16
-81 -23 -122 -11 -69 -16 -78 -57 -117 -24 -24 -47 -43 -52 -43 -4 0 -16 -8
-28 -18 -11 -10 -32 -27 -47 -38 -163 -121 -213 -158 -230 -173 -11 -9 -59
-45 -107 -79 -48 -35 -93 -69 -100 -75 -7 -7 -38 -30 -68 -52 -30 -22 -64 -48
-74 -57 -11 -10 -23 -18 -27 -18 -4 0 -14 -6 -21 -12 -7 -7 -40 -33 -73 -57
-33 -25 -62 -47 -65 -51 -3 -3 -18 -14 -33 -23 -16 -10 -39 -28 -53 -40 -54
-47 -55 -47 421 -47 l445 0 0 -21 c0 -27 -18 -137 -35 -209 l-12 -55 -680 -3
c-539 -2 -682 0 -686 10 -2 7 -1 36 4 63 38 229 33 218 125 284 42 30 81 59
87 65 7 7 53 41 102 76 50 35 95 69 100 76 6 6 51 40 100 75 50 35 97 69 105
76 8 7 44 34 80 61 36 26 97 72 135 101 39 29 80 60 93 69 108 79 150 115 145
128 -4 12 -76 14 -445 14 l-440 0 7 63 c4 34 11 70 16 79 5 9 9 33 9 53 0 37
14 74 34 87 6 4 309 8 672 8 588 0 663 -2 675 -16z m3073 -16 c13 -30 36 -105
81 -263 9 -33 20 -71 25 -85 4 -14 13 -43 18 -65 6 -22 22 -76 35 -120 13 -44
32 -107 41 -140 28 -99 42 -139 52 -142 7 -2 79 102 149 215 6 9 16 22 23 30
6 7 12 19 12 27 0 7 4 15 9 17 4 2 48 66 96 143 49 77 91 142 95 145 4 3 10
15 14 28 4 12 12 22 17 22 5 0 9 6 9 14 0 8 4 16 8 18 4 2 27 35 51 73 74 120
66 115 207 115 142 0 150 -4 135 -72 -13 -59 -27 -136 -46 -243 -28 -160 -36
-209 -46 -255 -8 -43 -21 -117 -39 -225 -5 -27 -16 -90 -25 -140 -18 -95 -28
-149 -44 -255 -15 -97 -33 -173 -44 -188 -7 -9 -44 -12 -141 -10 l-131 3 1 40
c1 41 9 91 39 250 10 50 21 113 26 140 31 191 39 233 45 253 5 16 2 22 -10 22
-9 0 -16 -4 -16 -8 0 -5 -8 -17 -18 -28 -10 -10 -21 -26 -25 -34 -8 -18 -30
-53 -37 -60 -3 -3 -52 -79 -110 -170 -57 -91 -106 -167 -109 -170 -4 -3 -11
-14 -18 -25 -69 -113 -96 -156 -108 -172 -28 -38 -39 -44 -74 -41 -35 3 -36 4
-58 73 -12 39 -29 95 -38 125 -8 30 -24 84 -35 120 -10 36 -27 92 -36 125 -9
33 -27 94 -40 135 -13 41 -24 82 -24 91 0 20 -26 44 -34 31 -3 -5 -10 -37 -16
-73 -6 -35 -15 -86 -20 -114 -5 -27 -16 -93 -24 -145 -9 -52 -20 -117 -26
-145 -5 -27 -14 -84 -21 -125 -6 -41 -16 -81 -22 -87 -14 -18 -270 -18 -285 0
-7 8 -7 18 -2 27 6 8 10 29 10 46 0 17 11 86 24 155 13 68 31 165 40 214 8 50
18 104 21 120 13 62 24 123 40 215 20 123 28 166 60 335 14 77 30 160 34 185
15 84 7 80 157 80 l134 0 14 -32z m4269 18 c3 -8 2 -38 -3 -67 -8 -53 -54
-310 -64 -359 -6 -26 -42 -239 -56 -325 -5 -27 -16 -90 -25 -140 -10 -49 -21
-110 -25 -135 -5 -25 -16 -88 -25 -140 -9 -52 -19 -111 -22 -130 -10 -80 -10
-80 -166 -80 l-139 0 7 68 c3 37 10 81 15 97 5 17 19 89 31 160 12 72 25 150
30 175 4 25 15 86 23 135 9 50 20 113 25 140 17 89 42 229 51 280 30 183 55
312 64 322 17 19 272 18 279 -1z m-6119 -240 c48 -44 50 -84 14 -286 -11 -63
-24 -137 -29 -165 -4 -27 -16 -90 -25 -140 -25 -137 -31 -173 -48 -270 -8 -49
-19 -101 -23 -115 -15 -48 -56 -108 -82 -121 -78 -38 -87 -39 -531 -39 -408 0
-438 2 -477 20 -32 14 -48 30 -64 63 l-22 44 22 114 c12 63 29 152 37 199 52
295 63 356 74 400 5 19 11 60 15 90 13 108 46 171 113 215 l37 24 477 0 477 1
35 -34z m559 4 c-1 -14 -6 -47 -12 -75 -5 -27 -14 -76 -20 -108 -5 -33 -13
-67 -16 -77 -11 -35 16 -40 231 -42 l209 -3 -1 -45 c-2 -46 -16 -137 -31 -200
l-9 -35 -221 -5 c-122 -3 -225 -8 -228 -12 -10 -10 -25 -81 -32 -149 -5 -52
-3 -57 22 -77 27 -22 33 -22 426 -22 219 0 400 -4 403 -9 3 -4 1 -35 -5 -67
-6 -32 -15 -79 -19 -104 -4 -25 -12 -58 -17 -75 l-9 -30 -508 -3 c-478 -2
-510 -1 -550 17 -33 14 -47 29 -65 66 -20 42 -21 53 -12 96 19 87 30 143 36
189 3 25 10 68 16 95 13 68 25 133 44 240 19 105 29 160 50 269 8 43 15 93 15
111 0 19 5 37 10 40 6 3 10 15 10 26 0 19 6 19 143 17 l142 -3 -2 -25z m3636
4 c44 -37 56 -85 41 -170 -6 -38 -18 -107 -26 -154 -42 -248 -46 -267 -66
-305 -18 -33 -47 -62 -93 -91 -27 -18 -59 -19 -410 -24 l-380 -5 -3 -31 c-2
-25 3 -37 24 -53 26 -21 35 -21 425 -21 309 0 398 -3 402 -12 2 -7 -2 -42 -10
-78 -7 -36 -18 -90 -24 -120 -6 -30 -13 -61 -15 -67 -3 -10 -113 -13 -511 -13
-478 0 -510 2 -550 19 -54 25 -88 86 -79 140 4 20 14 77 22 126 19 111 29 163
44 240 12 66 27 147 59 330 33 188 41 211 80 251 66 65 41 62 563 63 l476 1
31 -26z m1359 -4 c17 -16 35 -44 40 -63 9 -32 7 -46 -38 -302 -5 -27 -16 -90
-25 -140 -8 -49 -19 -112 -25 -140 -6 -27 -17 -90 -25 -140 -8 -49 -19 -112
-24 -140 -5 -27 -14 -79 -20 -115 -7 -36 -14 -73 -17 -82 -5 -17 -39 -18 -520
-18 -496 0 -516 1 -554 20 -59 30 -74 67 -66 164 4 45 11 97 16 116 5 19 16
78 25 130 37 214 50 253 101 295 63 53 79 55 471 55 l363 0 6 24 c4 16 -1 34
-13 50 l-18 25 -410 3 -410 3 2 35 c2 41 28 195 38 228 l7 22 533 0 532 0 31
-30z"/>
<path d="M3210 6904 c-176 -25 -260 -51 -386 -118 -328 -175 -522 -491 -540
-880 -6 -111 -3 -144 14 -216 48 -201 142 -774 142 -866 0 -12 19 -14 117 -12
l118 3 12 160 c7 88 15 174 18 191 7 41 39 68 105 89 101 32 173 76 240 144
104 105 160 234 160 368 0 83 19 128 63 149 65 31 123 -3 138 -81 9 -49 -3
-191 -20 -238 -4 -12 -11 -34 -15 -49 l-6 -28 210 0 c115 0 210 3 210 6 0 3
-20 29 -45 56 -37 42 -45 57 -45 90 0 71 75 119 145 92 27 -11 153 -162 230
-279 118 -176 236 -442 275 -617 l13 -58 97 0 c93 0 98 1 105 23 3 12 9 105
12 207 6 206 -7 335 -54 515 -45 176 -45 178 -34 207 5 15 23 35 38 45 24 16
51 18 243 17 243 -1 344 -15 486 -65 281 -98 479 -264 657 -551 14 -22 25 -28
52 -28 33 0 35 2 29 28 -13 55 -98 260 -150 362 -122 240 -254 420 -454 620
-131 132 -322 290 -349 290 -6 0 -17 -13 -26 -29 -36 -71 -109 -91 -163 -46
-46 38 -47 68 -4 155 47 96 56 186 23 219 -12 12 -29 21 -38 21 -40 0 -121
-50 -176 -109 -52 -55 -61 -61 -98 -61 -59 0 -99 42 -99 103 l0 44 -67 21
c-176 55 -352 87 -543 102 -125 9 -582 12 -640 4z m289 -260 c25 -21 31 -33
31 -66 0 -87 -37 -108 -187 -108 -199 0 -320 -47 -443 -170 -46 -45 -89 -99
-108 -137 -37 -71 -72 -196 -72 -260 0 -55 -12 -78 -50 -98 -36 -19 -63 -19
-99 0 -43 21 -55 62 -47 155 27 324 274 612 591 689 58 14 117 20 217 20 133
1 137 0 167 -25z m1641 -372 c14 -10 33 -35 44 -56 16 -32 17 -44 7 -76 -17
-58 -61 -90 -123 -90 -44 0 -54 4 -84 34 -30 30 -34 41 -34 84 0 105 107 164
190 104z"/>
<path d="M2004 6746 c-256 -67 -464 -249 -563 -493 -51 -125 -56 -161 -56
-403 l0 -225 27 -3 c30 -4 29 -6 48 107 34 195 152 336 344 409 26 9 91 17
175 21 l134 6 17 60 c45 159 139 331 253 465 l68 80 -178 0 c-153 -1 -191 -4
-269 -24z"/>
<path d="M2636 4073 c-14 -14 -28 -36 -30 -47 -9 -44 -26 -132 -31 -161 -15
-74 -36 -205 -41 -256 -6 -52 -4 -57 21 -77 27 -21 37 -22 252 -22 192 0 229
2 253 17 42 24 58 71 76 213 3 25 8 52 12 60 3 8 11 53 19 100 7 47 15 99 19
116 4 22 0 40 -11 58 l-17 26 -248 0 -247 0 -27 -27z"/>
<path d="M6835 4082 c-24 -21 -45 -65 -45 -96 0 -13 12 -35 26 -50 l27 -26
231 0 c213 0 234 2 264 20 17 11 32 27 32 35 0 8 5 15 10 15 17 0 11 78 -7
100 -17 19 -29 20 -268 20 -221 -1 -252 -3 -270 -18z"/>
<path d="M8127 3689 c-25 -15 -47 -63 -47 -104 0 -29 6 -39 33 -55 30 -18 50
-20 273 -20 213 0 243 2 255 17 15 17 41 151 33 165 -8 12 -526 9 -547 -3z"/>
</g>
</svg>
